<?xml version="1.0" encoding="UTF-8" ?>
<!DOCTYPE svg PUBLIC "-//W3C//DTD SVG 1.1//EN" "http://www.w3.org/Graphics/SVG/1.1/DTD/svg11.dtd">
<svg width="953pt" height="209pt" viewBox="0 0 953 209" version="1.1" xmlns="http://www.w3.org/2000/svg">
<g id="#e6603dff">
<path fill="#e6603d" stroke="#e6603d" stroke-width="0.09375" opacity="1.00" d=" M 428.43 0.00 L 434.58 0.00 C 443.20 0.60 451.82 3.82 457.98 10.02 C 465.90 17.77 469.33 29.07 469.42 39.95 C 469.48 51.82 469.41 63.69 469.44 75.56 C 459.50 75.57 449.56 75.57 439.62 75.56 C 439.61 64.04 439.65 52.53 439.62 41.01 C 439.50 37.72 439.31 33.71 436.33 31.65 C 433.55 29.99 429.63 30.05 427.05 32.05 C 424.58 34.27 424.55 37.89 424.44 40.96 C 424.43 81.30 424.45 121.64 424.43 161.99 C 424.54 166.20 423.97 170.60 425.42 174.65 C 427.05 178.87 432.87 179.44 436.39 177.40 C 439.42 175.39 439.49 171.32 439.62 168.06 C 439.65 156.52 439.61 144.98 439.62 133.44 C 449.56 133.43 459.50 133.43 469.44 133.44 C 469.43 144.63 469.44 155.82 469.45 167.02 C 469.60 177.43 467.17 188.33 460.37 196.48 C 454.16 204.21 444.40 208.39 434.64 209.00 L 427.88 209.00 C 419.02 207.99 410.30 204.43 404.04 197.94 C 395.99 189.86 392.36 178.26 392.45 167.03 C 392.43 125.36 392.43 83.69 392.45 42.02 C 392.35 30.53 396.23 18.69 404.62 10.60 C 410.94 4.31 419.62 0.82 428.43 0.00 M 409.53 20.54 C 405.07 26.34 403.25 33.79 403.31 41.02 C 403.32 83.35 403.31 125.69 403.31 168.03 C 403.20 176.86 406.35 185.97 412.97 192.00 C 423.16 201.46 440.74 201.53 450.79 191.84 C 456.64 186.24 459.32 178.05 459.50 170.09 C 459.68 161.11 459.47 152.11 459.60 143.13 C 456.03 143.06 452.47 143.04 448.90 143.05 C 448.76 152.39 449.06 161.74 448.78 171.08 C 448.56 177.08 446.09 183.65 440.43 186.49 C 434.32 189.44 426.41 189.15 420.86 185.09 C 415.63 181.15 413.90 174.26 413.95 168.01 C 413.93 126.03 413.97 84.04 413.93 42.06 C 413.82 36.38 415.13 30.38 419.07 26.09 C 424.58 19.79 434.76 18.91 441.72 23.23 C 446.90 26.61 448.69 33.15 448.82 39.02 C 449.00 48.09 448.78 57.17 448.90 66.24 C 452.48 66.28 456.05 66.24 459.62 66.09 C 459.46 57.38 459.66 48.67 459.53 39.96 C 459.44 32.38 457.38 24.51 452.24 18.76 C 441.37 6.59 419.34 7.47 409.53 20.54 Z" />
<path fill="#e6603d" stroke="#e6603d" stroke-width="0.09375" opacity="1.00" d=" M 210.03 3.00 C 219.89 3.01 229.74 2.99 239.59 3.01 C 248.59 70.68 257.64 138.34 266.66 206.00 C 256.28 205.98 245.91 206.05 235.54 205.96 C 234.59 194.39 233.52 182.82 232.53 171.25 C 226.78 171.25 221.02 171.25 215.26 171.25 C 213.94 182.83 212.63 194.42 211.30 206.00 C 201.85 206.00 192.41 206.00 182.96 206.00 C 191.98 138.33 201.00 70.67 210.03 3.00 M 218.59 12.60 C 210.04 73.87 202.10 135.24 193.63 196.52 C 197.07 196.67 200.51 196.73 203.96 196.75 C 205.68 185.24 207.15 173.69 208.52 162.14 C 219.16 161.82 229.82 161.81 240.46 162.15 C 241.64 173.65 243.28 185.10 244.55 196.60 C 248.01 196.67 251.48 196.71 254.96 196.73 C 247.14 135.36 239.08 74.02 231.15 12.66 C 226.96 12.62 222.77 12.60 218.59 12.60 Z" />
<path fill="#e6603d" stroke="#e6603d" stroke-width="0.09375" opacity="1.00" d=" M 289.06 3.00 C 303.39 3.02 317.71 2.95 332.04 3.03 C 341.32 3.09 350.93 6.64 356.89 13.98 C 362.66 20.90 364.60 30.16 364.56 38.97 C 364.50 55.27 364.71 71.57 364.45 87.86 C 364.32 95.69 360.70 103.41 354.12 107.84 C 360.79 112.38 365.14 119.97 365.34 128.07 C 365.62 143.70 365.27 159.33 365.51 174.95 C 365.69 185.41 367.22 195.79 369.43 206.00 C 359.35 205.99 349.28 206.02 339.20 205.98 C 336.15 196.99 335.11 187.47 335.03 178.02 C 334.93 162.01 335.06 146.00 334.98 129.99 C 334.93 126.99 334.45 123.05 331.20 121.82 C 327.81 120.89 324.23 121.44 320.76 121.31 C 320.74 149.54 320.75 177.77 320.75 206.00 C 310.19 206.00 299.62 206.00 289.06 206.00 C 289.06 138.33 289.06 70.67 289.06 3.00 M 299.81 12.24 C 299.37 39.14 299.74 66.06 299.62 92.97 C 299.73 127.56 299.40 162.15 299.78 196.73 C 303.22 196.69 306.65 196.69 310.09 196.74 C 310.45 168.82 310.16 140.89 310.23 112.96 C 317.15 112.98 324.12 112.42 331.00 113.38 C 336.84 114.24 342.22 118.39 343.72 124.23 C 345.43 131.35 344.31 138.77 344.62 146.01 C 345.00 162.92 343.33 180.07 347.00 196.74 C 350.53 196.70 354.06 196.68 357.59 196.65 C 354.15 178.60 355.51 160.19 355.25 141.95 C 355.08 133.55 356.29 124.55 352.19 116.83 C 350.52 113.18 347.22 110.78 344.36 108.13 C 346.57 105.46 349.63 103.47 351.20 100.30 C 353.94 95.34 354.33 89.54 354.33 84.00 C 354.29 69.31 354.32 54.62 354.32 39.94 C 354.35 32.65 352.68 24.91 347.61 19.40 C 343.47 14.78 337.24 12.50 331.13 12.37 C 320.69 12.17 310.24 12.45 299.81 12.24 Z" />
<path fill="#e6603d" stroke="#e6603d" stroke-width="0.09375" opacity="1.00" d=" M 515.30 3.01 C 525.15 2.99 535.00 3.00 544.85 3.00 C 553.87 70.67 562.90 138.33 571.93 206.00 C 561.57 206.00 551.20 206.00 540.84 206.00 C 539.83 194.42 538.81 182.83 537.80 171.25 C 532.04 171.25 526.28 171.25 520.52 171.25 C 519.22 182.83 517.88 194.40 516.59 205.98 C 507.14 206.02 497.68 205.99 488.23 206.00 C 497.25 138.34 506.29 70.67 515.30 3.01 M 499.00 196.74 C 502.47 196.71 505.95 196.67 509.42 196.58 C 510.82 185.03 512.41 173.51 513.93 161.97 C 524.51 161.97 535.09 161.82 545.66 162.06 C 547.04 173.62 548.34 185.19 549.98 196.71 C 553.35 196.69 556.72 196.70 560.10 196.72 C 559.20 186.49 557.53 176.34 556.33 166.14 C 549.60 114.96 543.22 63.73 536.29 12.58 C 532.12 12.61 527.95 12.62 523.78 12.64 C 515.48 74.00 507.12 135.35 499.00 196.74 Z" />
<path fill="#e6603d" stroke="#e6603d" stroke-width="0.09375" opacity="1.00" d=" M 594.36 3.01 C 608.58 3.02 622.79 2.94 637.00 3.05 C 646.88 3.18 657.11 6.72 663.71 14.33 C 670.61 22.11 672.92 32.86 672.87 43.01 C 672.89 83.99 672.87 124.96 672.88 165.93 C 673.03 175.96 671.19 186.67 664.48 194.51 C 657.82 202.48 647.14 205.84 637.03 205.96 C 622.81 206.05 608.58 205.99 594.36 205.98 C 594.38 138.33 594.38 70.67 594.36 3.01 M 604.89 12.67 C 604.95 74.02 604.70 135.39 605.02 196.74 C 615.03 196.58 625.04 196.79 635.06 196.65 C 642.26 196.59 649.71 194.18 654.73 188.84 C 660.25 183.07 662.33 174.85 662.32 167.04 C 662.32 125.68 662.30 84.32 662.32 42.95 C 662.36 35.56 660.59 27.87 655.83 22.04 C 650.88 15.78 642.81 12.68 634.96 12.67 C 624.93 12.56 614.91 12.61 604.89 12.67 Z" />
<path fill="#e6603d" stroke="#e6603d" stroke-width="0.09375" opacity="1.00" d=" M 702.00 3.00 C 724.00 3.00 746.00 3.00 768.00 3.00 C 768.00 12.77 768.00 22.54 768.00 32.31 C 756.56 32.33 745.12 32.28 733.68 32.34 C 733.69 50.78 733.70 69.22 733.67 87.66 C 741.28 87.72 748.89 87.67 756.50 87.69 C 756.50 96.96 756.50 106.23 756.50 115.50 C 748.90 115.51 741.29 115.50 733.69 115.50 C 733.68 135.89 733.71 156.27 733.67 176.66 C 745.11 176.73 756.56 176.67 768.00 176.69 C 768.00 186.46 768.00 196.23 768.00 206.00 C 746.00 206.00 724.00 206.00 702.00 206.00 C 702.00 138.33 702.00 70.67 702.00 3.00 M 712.47 196.65 C 727.89 196.72 743.32 196.67 758.74 196.68 C 758.75 193.23 758.75 189.77 758.74 186.31 C 746.86 186.28 734.99 186.39 723.12 186.26 C 723.13 159.79 723.11 133.32 723.14 106.85 C 731.75 106.77 740.37 106.83 748.99 106.83 C 749.01 103.34 748.99 99.86 748.90 96.37 C 740.30 96.46 731.70 96.51 723.10 96.35 C 723.15 71.91 723.13 47.47 723.10 23.03 C 734.99 22.93 746.88 23.08 758.77 22.95 C 758.75 19.56 758.76 16.18 758.81 12.79 C 743.41 12.39 728.00 12.75 712.59 12.60 C 712.35 73.95 712.59 135.30 712.47 196.65 Z" />
<path fill="#e6603d" stroke="#e6603d" stroke-width="0.09375" opacity="1.00" d=" M 411.21 23.18 C 420.03 10.07 442.27 9.61 451.44 22.55 C 455.29 27.86 456.63 34.56 456.62 41.01 C 456.60 48.49 456.75 55.97 456.47 63.44 C 454.92 63.36 453.37 63.29 451.83 63.22 C 451.74 55.12 451.94 47.03 451.76 38.93 C 451.60 32.33 449.49 25.13 443.88 21.13 C 435.63 15.50 423.03 16.64 416.54 24.49 C 412.37 29.28 410.91 35.81 410.99 42.03 C 411.00 83.68 411.01 125.34 410.99 167.00 C 410.93 173.22 412.13 179.82 416.26 184.70 C 422.19 191.86 433.18 193.06 441.32 189.32 C 447.85 186.25 451.23 179.00 451.65 172.08 C 452.07 163.37 451.67 154.64 451.84 145.92 C 453.44 145.97 455.05 146.03 456.66 146.08 C 456.53 154.09 456.74 162.09 456.57 170.09 C 456.38 177.04 454.20 184.21 449.25 189.25 C 442.12 196.59 430.21 198.03 421.08 193.86 C 411.25 189.46 406.02 178.42 406.21 168.00 C 406.16 126.02 406.21 84.03 406.19 42.04 C 406.14 35.48 407.36 28.65 411.21 23.18 Z" />
<path fill="#e6603d" stroke="#e6603d" stroke-width="0.09375" opacity="1.00" d=" M 302.65 15.19 C 312.13 15.38 321.61 15.10 331.09 15.32 C 336.66 15.42 342.36 17.62 345.92 22.04 C 350.32 27.26 351.46 34.34 351.44 40.97 C 351.44 55.33 351.43 69.68 351.45 84.03 C 351.41 89.71 351.02 95.82 347.58 100.58 C 345.03 104.32 340.78 106.23 336.88 108.19 C 340.21 109.60 343.71 111.00 346.27 113.67 C 350.08 117.44 351.90 122.80 352.18 128.08 C 352.98 149.97 350.92 172.02 354.03 193.80 C 352.46 193.77 350.89 193.75 349.32 193.73 C 346.40 176.97 347.87 159.89 347.50 142.98 C 347.17 135.33 348.78 127.10 345.16 119.99 C 342.18 113.97 335.56 110.65 329.06 110.15 C 321.81 109.69 314.54 109.95 307.28 110.05 C 307.28 137.95 307.45 165.86 307.19 193.77 C 305.69 193.80 304.18 193.83 302.68 193.86 C 302.27 165.24 302.62 136.60 302.51 107.98 C 302.60 77.05 302.32 46.11 302.65 15.19 M 307.32 105.74 C 314.25 105.69 321.18 105.91 328.11 105.65 C 333.66 105.41 339.65 103.73 343.16 99.12 C 346.48 94.87 346.93 89.25 346.96 84.05 C 346.92 69.38 346.97 54.70 346.93 40.03 C 346.92 34.19 345.72 27.83 341.37 23.60 C 338.40 20.60 334.08 19.50 329.97 19.50 C 322.47 19.41 314.97 19.59 307.47 19.43 C 307.11 48.20 307.42 76.97 307.32 105.74 Z" />
<path fill="#e6603d" stroke="#e6603d" stroke-width="0.09375" opacity="1.00" d=" M 221.03 15.55 C 223.40 15.54 225.79 15.47 228.16 15.71 C 228.61 16.76 228.91 17.87 229.06 19.01 C 236.55 77.25 244.09 135.48 251.70 193.70 C 250.20 193.73 248.71 193.76 247.22 193.79 C 245.73 182.20 244.37 170.60 242.93 159.01 C 230.64 159.00 218.36 158.99 206.07 159.01 C 204.56 170.57 203.02 182.11 201.55 193.67 C 200.06 193.72 198.57 193.76 197.08 193.81 C 204.95 134.38 213.09 74.97 221.03 15.55 M 224.51 21.40 C 218.42 65.72 212.66 110.09 206.68 154.43 C 218.46 154.65 230.24 154.37 242.02 154.58 C 241.89 152.43 241.78 150.28 241.52 148.14 C 236.70 111.79 231.96 75.43 227.17 39.07 C 226.36 33.17 225.86 27.21 224.51 21.40 Z" />
<path fill="#e6603d" stroke="#e6603d" stroke-width="0.09375" opacity="1.00" d=" M 526.25 15.63 C 528.80 15.61 531.35 15.60 533.90 15.60 C 541.45 75.01 549.34 134.38 556.90 193.79 C 555.40 193.76 553.92 193.74 552.44 193.72 C 551.05 182.15 549.62 170.58 548.19 159.02 C 535.89 159.02 523.59 158.93 511.29 159.07 C 509.87 170.65 508.30 182.22 506.75 193.79 C 505.25 193.75 503.75 193.72 502.27 193.68 C 510.32 134.34 518.35 74.99 526.25 15.63 M 529.80 20.96 C 523.78 65.44 517.92 109.94 511.95 154.42 C 523.81 154.59 535.68 154.50 547.54 154.47 C 544.46 129.96 541.13 105.48 537.94 80.98 C 535.15 60.98 533.03 40.88 529.80 20.96 Z" />
<path fill="#e6603d" stroke="#e6603d" stroke-width="0.09375" opacity="1.00" d=" M 607.83 15.60 C 616.87 15.57 625.90 15.49 634.94 15.61 C 641.37 15.65 648.00 17.85 652.45 22.66 C 657.61 28.05 659.44 35.74 659.43 43.02 C 659.45 84.02 659.43 125.02 659.44 166.02 C 659.47 173.12 658.02 180.69 653.15 186.15 C 648.70 191.34 641.74 193.66 635.04 193.71 C 626.01 193.85 616.97 193.67 607.93 193.78 C 607.67 134.39 607.87 75.00 607.83 15.60 M 612.61 20.04 C 612.52 76.44 612.55 132.83 612.60 189.23 C 620.06 189.22 627.53 189.34 634.99 189.21 C 640.27 189.17 645.88 187.63 649.49 183.55 C 653.74 178.83 654.65 172.17 654.64 166.05 C 654.62 125.03 654.64 84.01 654.63 42.99 C 654.61 36.92 653.50 30.38 649.27 25.75 C 645.73 21.76 640.25 20.17 635.07 20.11 C 627.58 19.94 620.10 20.12 612.61 20.04 Z" />
<path fill="#e6603d" stroke="#e6603d" stroke-width="0.09375" opacity="1.00" d=" M 715.41 193.71 C 715.55 134.31 715.26 74.92 715.55 15.52 C 728.98 15.67 742.41 15.42 755.84 15.66 C 755.83 17.09 755.83 18.53 755.84 19.97 C 743.97 20.19 732.09 19.95 720.22 20.11 C 720.24 46.48 720.31 72.85 720.19 99.22 C 728.75 99.54 737.33 99.35 745.91 99.33 C 745.95 100.85 746.00 102.36 746.06 103.88 C 737.45 103.91 728.85 103.80 720.24 103.95 C 720.24 132.35 720.27 160.75 720.22 189.15 C 732.08 189.38 743.94 189.19 755.80 189.25 C 755.79 190.74 755.79 192.25 755.79 193.75 C 742.33 193.73 728.87 193.80 715.41 193.71 Z" />
<path fill="#e6603d" stroke="#e6603d" stroke-width="0.09375" opacity="1.00" d=" M 310.27 22.37 C 317.22 22.48 324.17 22.20 331.12 22.47 C 334.82 22.60 338.54 24.25 340.68 27.36 C 343.74 31.56 344.00 36.96 344.03 41.95 C 343.98 55.97 343.99 69.99 344.02 84.01 C 343.98 88.47 343.75 93.29 341.00 97.02 C 338.29 100.81 333.51 102.31 329.06 102.64 C 322.80 103.03 316.52 102.73 310.25 102.79 C 310.26 75.98 310.22 49.17 310.27 22.37 M 320.75 31.76 C 320.75 52.65 320.75 73.54 320.75 94.43 C 324.13 94.34 327.60 94.81 330.92 93.96 C 333.93 92.67 333.92 88.79 334.06 86.02 C 334.06 70.70 334.08 55.37 334.05 40.05 C 334.02 37.06 333.46 32.84 329.98 32.00 C 326.92 31.52 323.82 31.80 320.75 31.76 Z" />
<path fill="#e6603d" stroke="#e6603d" stroke-width="0.09375" opacity="1.00" d=" M 615.54 22.99 C 622.39 23.09 629.24 22.81 636.08 23.11 C 640.65 23.26 645.36 25.15 648.05 28.98 C 651.40 33.58 651.75 39.51 651.71 45.00 C 651.63 86.02 651.74 127.03 651.65 168.05 C 651.81 175.09 648.75 183.32 641.30 185.35 C 632.86 187.22 624.12 185.97 615.55 186.29 C 615.47 131.86 615.49 77.43 615.54 22.99 M 626.07 32.31 C 626.05 80.54 626.07 128.77 626.06 177.00 C 629.74 176.85 633.61 177.52 637.14 176.22 C 640.96 174.41 641.44 169.68 641.49 165.96 C 641.52 125.29 641.48 84.62 641.51 43.95 C 641.44 40.21 641.30 35.51 637.67 33.37 C 634.08 31.61 629.91 32.53 626.07 32.31 Z" />
<path fill="#e6603d" stroke="#e6603d" stroke-width="0.09375" opacity="1.00" d=" M 529.67 42.96 C 532.32 57.50 533.64 72.26 535.77 86.88 C 538.60 108.41 541.40 129.94 544.27 151.46 C 534.61 151.70 524.95 151.49 515.30 151.57 C 520.05 115.36 525.13 79.19 529.67 42.96 M 530.28 86.72 C 527.94 105.20 526.05 123.74 523.89 142.25 C 527.61 142.25 531.33 142.25 535.06 142.25 C 533.47 123.74 531.84 105.23 530.28 86.72 Z" />
<path fill="#e6603d" stroke="#e6603d" stroke-width="0.09375" opacity="1.00" d=" M 210.12 151.61 C 214.80 115.59 219.53 79.56 224.57 43.60 C 228.32 68.01 231.09 92.58 234.45 117.06 C 235.89 128.59 237.62 140.08 238.88 151.63 C 229.29 151.51 219.71 151.55 210.12 151.61 M 224.87 86.86 C 222.82 105.33 220.69 123.78 218.62 142.25 C 222.34 142.25 226.06 142.25 229.79 142.25 C 228.10 123.79 226.77 105.30 224.87 86.86 Z" />
</g>
<g id="#f9c924ff">
<path fill="#f9c924" stroke="#f9c924" stroke-width="0.09375" opacity="1.00" d=" M 409.53 20.54 C 419.34 7.47 441.37 6.59 452.24 18.76 C 457.38 24.51 459.44 32.38 459.53 39.96 C 459.66 48.67 459.46 57.38 459.62 66.09 C 456.05 66.24 452.48 66.28 448.90 66.24 C 448.78 57.17 449.00 48.09 448.82 39.02 C 448.69 33.15 446.90 26.61 441.72 23.23 C 434.76 18.91 424.58 19.79 419.07 26.09 C 415.13 30.38 413.82 36.38 413.93 42.06 C 413.97 84.04 413.93 126.03 413.95 168.01 C 413.90 174.26 415.63 181.15 420.86 185.09 C 426.41 189.15 434.32 189.44 440.43 186.49 C 446.09 183.65 448.56 177.08 448.78 171.08 C 449.06 161.74 448.76 152.39 448.90 143.05 C 452.47 143.04 456.03 143.06 459.60 143.13 C 459.47 152.11 459.68 161.11 459.50 170.09 C 459.32 178.05 456.64 186.24 450.79 191.84 C 440.74 201.53 423.16 201.46 412.97 192.00 C 406.35 185.97 403.20 176.86 403.31 168.03 C 403.31 125.69 403.32 83.35 403.31 41.02 C 403.25 33.79 405.07 26.34 409.53 20.54 M 411.21 23.18 C 407.36 28.65 406.14 35.48 406.19 42.04 C 406.21 84.03 406.16 126.02 406.21 168.00 C 406.02 178.42 411.25 189.46 421.08 193.86 C 430.21 198.03 442.12 196.59 449.25 189.25 C 454.20 184.21 456.38 177.04 456.57 170.09 C 456.74 162.09 456.53 154.09 456.66 146.08 C 455.05 146.03 453.44 145.97 451.84 145.92 C 451.67 154.64 452.07 163.37 451.65 172.08 C 451.23 179.00 447.85 186.25 441.32 189.32 C 433.18 193.06 422.19 191.86 416.26 184.70 C 412.13 179.82 410.93 173.22 410.99 167.00 C 411.01 125.34 411.00 83.68 410.99 42.03 C 410.91 35.81 412.37 29.28 416.54 24.49 C 423.03 16.64 435.63 15.50 443.88 21.13 C 449.49 25.13 451.60 32.33 451.76 38.93 C 451.94 47.03 451.74 55.12 451.83 63.22 C 453.37 63.29 454.92 63.36 456.47 63.44 C 456.75 55.97 456.60 48.49 456.62 41.01 C 456.63 34.56 455.29 27.86 451.44 22.55 C 442.27 9.61 420.03 10.07 411.21 23.18 Z" />
<path fill="#f9c924" stroke="#f9c924" stroke-width="0.09375" opacity="1.00" d=" M 299.81 12.24 C 310.24 12.45 320.69 12.17 331.13 12.37 C 337.24 12.50 343.47 14.78 347.61 19.40 C 352.68 24.91 354.35 32.65 354.32 39.94 C 354.32 54.62 354.29 69.31 354.33 84.00 C 354.33 89.54 353.94 95.34 351.20 100.30 C 349.63 103.47 346.57 105.46 344.36 108.13 C 347.22 110.78 350.52 113.18 352.19 116.83 C 356.29 124.55 355.08 133.55 355.25 141.95 C 355.51 160.19 354.15 178.60 357.59 196.65 C 354.06 196.68 350.53 196.70 347.00 196.74 C 343.33 180.07 345.00 162.92 344.62 146.01 C 344.31 138.77 345.43 131.35 343.72 124.23 C 342.22 118.39 336.84 114.24 331.00 113.38 C 324.12 112.42 317.15 112.98 310.23 112.96 C 310.16 140.89 310.45 168.82 310.09 196.74 C 306.65 196.69 303.22 196.69 299.78 196.73 C 299.40 162.15 299.73 127.56 299.62 92.97 C 299.74 66.06 299.37 39.14 299.81 12.24 M 302.65 15.19 C 302.32 46.11 302.60 77.05 302.51 107.98 C 302.62 136.60 302.27 165.24 302.68 193.86 C 304.18 193.83 305.69 193.80 307.19 193.77 C 307.45 165.86 307.28 137.95 307.28 110.05 C 314.54 109.95 321.81 109.69 329.06 110.15 C 335.56 110.65 342.18 113.97 345.16 119.99 C 348.78 127.10 347.17 135.33 347.50 142.98 C 347.87 159.89 346.40 176.97 349.32 193.73 C 350.89 193.75 352.46 193.77 354.03 193.80 C 350.92 172.02 352.98 149.97 352.18 128.08 C 351.90 122.80 350.08 117.44 346.27 113.67 C 343.71 111.00 340.21 109.60 336.88 108.19 C 340.78 106.23 345.03 104.32 347.58 100.58 C 351.02 95.82 351.41 89.71 351.45 84.03 C 351.43 69.68 351.44 55.33 351.44 40.97 C 351.46 34.34 350.32 27.26 345.92 22.04 C 342.36 17.62 336.66 15.42 331.09 15.32 C 321.61 15.10 312.13 15.38 302.65 15.19 Z" />
<path fill="#f9c924" stroke="#f9c924" stroke-width="0.09375" opacity="1.00" d=" M 218.59 12.60 C 222.77 12.60 226.96 12.62 231.15 12.66 C 239.08 74.02 247.14 135.36 254.96 196.73 C 251.48 196.71 248.01 196.67 244.55 196.60 C 243.28 185.10 241.64 173.65 240.46 162.15 C 229.82 161.81 219.16 161.82 208.52 162.14 C 207.15 173.69 205.68 185.24 203.96 196.75 C 200.51 196.73 197.07 196.67 193.63 196.52 C 202.10 135.24 210.04 73.87 218.59 12.60 M 221.03 15.55 C 213.09 74.97 204.95 134.38 197.08 193.81 C 198.57 193.76 200.06 193.72 201.55 193.67 C 203.02 182.11 204.56 170.57 206.07 159.01 C 218.36 158.99 230.64 159.00 242.93 159.01 C 244.37 170.60 245.73 182.20 247.22 193.79 C 248.71 193.76 250.20 193.73 251.70 193.70 C 244.09 135.48 236.55 77.25 229.06 19.01 C 228.91 17.87 228.61 16.76 228.16 15.71 C 225.79 15.47 223.40 15.54 221.03 15.55 Z" />
<path fill="#f9c924" stroke="#f9c924" stroke-width="0.09375" opacity="1.00" d=" M 499.00 196.74 C 507.12 135.35 515.48 74.00 523.78 12.64 C 527.95 12.62 532.12 12.61 536.29 12.58 C 543.22 63.73 549.60 114.96 556.33 166.14 C 557.53 176.34 559.20 186.49 560.10 196.72 C 556.72 196.70 553.35 196.69 549.98 196.71 C 548.34 185.19 547.04 173.62 545.66 162.06 C 535.09 161.82 524.51 161.97 513.93 161.97 C 512.41 173.51 510.82 185.03 509.42 196.58 C 505.95 196.67 502.47 196.71 499.00 196.74 M 526.25 15.63 C 518.35 74.99 510.32 134.34 502.27 193.68 C 503.75 193.72 505.25 193.75 506.75 193.79 C 508.30 182.22 509.87 170.65 511.29 159.07 C 523.59 158.93 535.89 159.02 548.19 159.02 C 549.62 170.58 551.05 182.15 552.44 193.72 C 553.92 193.74 555.40 193.76 556.90 193.79 C 549.34 134.38 541.45 75.01 533.90 15.60 C 531.35 15.60 528.80 15.61 526.25 15.63 Z" />
<path fill="#f9c924" stroke="#f9c924" stroke-width="0.09375" opacity="1.00" d=" M 604.89 12.67 C 614.91 12.61 624.93 12.56 634.96 12.67 C 642.81 12.68 650.88 15.78 655.83 22.04 C 660.59 27.87 662.36 35.56 662.32 42.95 C 662.30 84.32 662.32 125.68 662.32 167.04 C 662.33 174.85 660.25 183.07 654.73 188.84 C 649.71 194.18 642.26 196.59 635.06 196.65 C 625.04 196.79 615.03 196.58 605.02 196.74 C 604.70 135.39 604.95 74.02 604.89 12.67 M 607.83 15.60 C 607.87 75.00 607.67 134.39 607.93 193.78 C 616.97 193.67 626.01 193.85 635.04 193.71 C 641.74 193.66 648.70 191.34 653.15 186.15 C 658.02 180.69 659.47 173.12 659.44 166.02 C 659.43 125.02 659.45 84.02 659.43 43.02 C 659.44 35.74 657.61 28.05 652.45 22.66 C 648.00 17.85 641.37 15.65 634.94 15.61 C 625.90 15.49 616.87 15.57 607.83 15.60 Z" />
<path fill="#f9c924" stroke="#f9c924" stroke-width="0.09375" opacity="1.00" d=" M 712.47 196.65 C 712.59 135.30 712.35 73.95 712.59 12.60 C 728.00 12.75 743.41 12.39 758.81 12.79 C 758.76 16.18 758.75 19.56 758.77 22.95 C 746.88 23.08 734.99 22.93 723.10 23.03 C 723.13 47.47 723.15 71.91 723.10 96.35 C 731.70 96.51 740.30 96.46 748.90 96.37 C 748.99 99.86 749.01 103.34 748.99 106.83 C 740.37 106.83 731.75 106.77 723.14 106.85 C 723.11 133.32 723.13 159.79 723.12 186.26 C 734.99 186.39 746.86 186.28 758.74 186.31 C 758.75 189.77 758.75 193.23 758.74 196.68 C 743.32 196.67 727.89 196.72 712.47 196.65 M 715.41 193.71 C 728.87 193.80 742.33 193.73 755.79 193.75 C 755.79 192.25 755.79 190.74 755.80 189.25 C 743.94 189.19 732.08 189.38 720.22 189.15 C 720.27 160.75 720.24 132.35 720.24 103.95 C 728.85 103.80 737.45 103.91 746.06 103.88 C 746.00 102.36 745.95 100.85 745.91 99.33 C 737.33 99.35 728.75 99.54 720.19 99.22 C 720.31 72.85 720.24 46.48 720.22 20.11 C 732.09 19.95 743.97 20.19 755.84 19.97 C 755.83 18.53 755.83 17.09 755.84 15.66 C 742.41 15.42 728.98 15.67 715.55 15.52 C 715.26 74.92 715.55 134.31 715.41 193.71 Z" />
<path fill="#f9c924" stroke="#f9c924" stroke-width="0.09375" opacity="1.00" d=" M 307.32 105.74 C 307.42 76.97 307.11 48.20 307.47 19.43 C 314.97 19.59 322.47 19.41 329.97 19.50 C 334.08 19.50 338.40 20.60 341.37 23.60 C 345.72 27.83 346.92 34.19 346.93 40.03 C 346.97 54.70 346.92 69.38 346.96 84.05 C 346.93 89.25 346.48 94.87 343.16 99.12 C 339.65 103.73 333.66 105.41 328.11 105.65 C 321.18 105.91 314.25 105.69 307.32 105.74 M 310.27 22.37 C 310.22 49.17 310.26 75.98 310.25 102.79 C 316.52 102.73 322.80 103.03 329.06 102.64 C 333.51 102.31 338.29 100.81 341.00 97.02 C 343.75 93.29 343.98 88.47 344.02 84.01 C 343.99 69.99 343.98 55.97 344.03 41.95 C 344.00 36.96 343.74 31.56 340.68 27.36 C 338.54 24.25 334.82 22.60 331.12 22.47 C 324.17 22.20 317.22 22.48 310.27 22.37 Z" />
<path fill="#f9c924" stroke="#f9c924" stroke-width="0.09375" opacity="1.00" d=" M 612.61 20.04 C 620.10 20.12 627.58 19.94 635.07 20.11 C 640.25 20.17 645.73 21.76 649.27 25.75 C 653.50 30.38 654.61 36.92 654.63 42.99 C 654.64 84.01 654.62 125.03 654.64 166.05 C 654.65 172.17 653.74 178.83 649.49 183.55 C 645.88 187.63 640.27 189.17 634.99 189.21 C 627.53 189.34 620.06 189.22 612.60 189.23 C 612.55 132.83 612.52 76.44 612.61 20.04 M 615.54 22.99 C 615.49 77.43 615.47 131.86 615.55 186.29 C 624.12 185.97 632.86 187.22 641.30 185.35 C 648.75 183.32 651.81 175.09 651.65 168.05 C 651.74 127.03 651.63 86.02 651.71 45.00 C 651.75 39.51 651.40 33.58 648.05 28.98 C 645.36 25.15 640.65 23.26 636.08 23.11 C 629.24 22.81 622.39 23.09 615.54 22.99 Z" />
<path fill="#f9c924" stroke="#f9c924" stroke-width="0.09375" opacity="1.00" d=" M 529.80 20.96 C 533.03 40.88 535.15 60.98 537.94 80.98 C 541.13 105.48 544.46 129.96 547.54 154.47 C 535.68 154.50 523.81 154.59 511.95 154.42 C 517.92 109.94 523.78 65.44 529.80 20.96 M 529.67 42.96 C 525.13 79.19 520.05 115.36 515.30 151.57 C 524.95 151.49 534.61 151.70 544.27 151.46 C 541.40 129.94 538.60 108.41 535.77 86.88 C 533.64 72.26 532.32 57.50 529.67 42.96 Z" />
<path fill="#f9c924" stroke="#f9c924" stroke-width="0.09375" opacity="1.00" d=" M 224.51 21.40 C 225.86 27.21 226.36 33.17 227.17 39.07 C 231.96 75.43 236.70 111.79 241.52 148.14 C 241.78 150.28 241.89 152.43 242.02 154.58 C 230.24 154.37 218.46 154.65 206.68 154.43 C 212.66 110.09 218.42 65.72 224.51 21.40 M 210.12 151.61 C 219.71 151.55 229.29 151.51 238.88 151.63 C 237.62 140.08 235.89 128.59 234.45 117.06 C 231.09 92.58 228.32 68.01 224.57 43.60 C 219.53 79.56 214.80 115.59 210.12 151.61 Z" />
</g>
<g id="#5a9ea7ff">
<path fill="#5a9ea7" stroke="#5a9ea7" stroke-width="0.09375" opacity="1.00" d=" M 0.00 47.21 C 2.33 47.10 4.65 46.99 6.98 46.99 C 53.99 47.01 100.99 46.99 148.00 47.00 C 148.00 85.33 148.00 123.67 148.00 162.00 C 101.02 162.01 54.04 161.99 7.05 162.01 C 4.70 162.01 2.35 161.89 0.00 161.78 L 0.00 161.39 C 1.14 160.05 2.21 158.65 3.20 157.19 C 15.32 139.00 27.51 120.86 39.67 102.70 C 27.70 85.88 15.67 69.10 3.73 52.27 C 2.58 50.67 1.33 49.13 0.00 47.68 L 0.00 47.21 M 18.90 55.81 C 17.62 57.29 18.62 60.10 20.83 59.45 C 23.05 59.57 22.12 56.73 22.58 55.35 C 21.35 55.48 20.11 55.55 18.90 55.81 M 29.40 55.46 C 27.93 55.91 27.85 57.57 28.35 58.78 C 29.76 60.26 33.05 59.42 32.26 57.00 C 32.49 55.53 30.46 55.11 29.40 55.46 M 39.47 55.41 C 36.53 55.71 37.82 60.46 40.50 59.43 C 43.31 59.19 42.01 54.43 39.47 55.41 M 47.96 55.92 C 47.73 57.08 47.66 58.26 47.54 59.43 C 48.98 59.09 51.49 60.04 51.75 57.94 C 52.44 55.69 49.49 54.60 47.96 55.92 M 57.80 55.78 C 56.90 57.04 57.19 59.76 59.19 59.47 C 61.62 59.96 61.40 56.94 61.56 55.41 C 60.30 55.50 59.04 55.54 57.80 55.78 M 68.45 55.45 C 65.95 55.99 66.96 60.08 69.45 59.52 C 72.61 59.40 71.30 54.27 68.45 55.45 M 78.41 55.41 C 75.46 55.62 76.80 60.50 79.46 59.45 C 82.18 59.08 81.03 54.52 78.41 55.41 M 86.42 55.46 C 86.59 56.67 86.70 57.90 87.01 59.09 C 88.64 60.09 91.00 59.30 90.85 57.12 C 90.51 54.91 87.97 55.76 86.42 55.46 M 97.37 55.66 C 95.39 56.21 96.09 59.84 98.20 59.48 C 100.56 59.92 100.29 56.97 100.60 55.49 C 99.52 55.49 98.44 55.54 97.37 55.66 M 107.40 55.44 C 104.78 56.08 106.05 60.31 108.58 59.49 C 111.53 58.97 110.17 54.34 107.40 55.44 M 117.47 55.38 C 114.71 55.35 115.35 60.06 117.99 59.51 C 120.95 59.67 120.35 54.62 117.47 55.38 M 125.65 55.40 C 125.65 56.69 125.66 57.99 125.68 59.29 C 126.98 59.32 128.29 59.35 129.61 59.37 C 129.52 58.18 129.47 56.98 129.25 55.81 C 128.06 55.57 126.85 55.50 125.65 55.40 M 135.72 55.77 C 134.63 57.12 135.20 59.59 137.19 59.52 C 139.54 59.83 139.20 57.01 139.58 55.52 C 138.29 55.56 137.00 55.56 135.72 55.77 M 24.26 63.35 C 22.20 65.50 25.48 68.39 27.53 66.43 C 29.17 64.29 26.32 61.62 24.26 63.35 M 135.96 64.94 C 134.22 66.47 135.62 69.83 138.02 68.82 C 141.07 67.95 138.73 63.27 135.96 64.94 M 30.42 70.50 C 28.83 70.73 28.47 73.47 29.91 74.13 C 31.33 75.34 33.90 74.00 33.26 72.02 C 33.49 70.51 31.47 70.19 30.42 70.50 M 136.38 74.31 C 134.94 74.94 134.58 77.20 136.11 77.95 C 137.35 79.28 139.88 77.76 139.41 75.99 C 139.58 74.43 137.56 73.89 136.38 74.31 M 35.04 78.24 C 33.27 80.07 35.49 83.32 37.73 81.70 C 40.29 80.29 37.37 76.36 35.04 78.24 M 136.50 83.71 C 134.89 84.01 134.62 86.98 136.35 87.55 C 137.39 88.28 139.60 87.43 139.40 85.96 C 139.83 84.28 137.95 83.17 136.50 83.71 M 41.38 85.44 C 38.84 85.79 39.44 89.97 41.99 89.55 C 45.10 89.69 44.38 84.49 41.38 85.44 M 46.18 93.12 C 43.89 94.28 45.56 98.09 48.01 96.94 C 50.85 96.16 48.85 91.49 46.18 93.12 M 136.19 93.19 C 134.07 94.46 135.53 98.01 138.00 97.19 C 140.90 96.18 138.98 91.67 136.19 93.19 M 50.48 100.45 C 50.77 101.73 50.34 103.39 51.44 104.36 C 52.72 104.83 54.74 104.62 54.69 102.87 C 55.31 100.21 52.13 100.66 50.48 100.45 M 135.51 105.61 C 136.38 106.91 138.23 106.22 139.52 106.48 C 139.12 105.21 139.68 102.83 137.94 102.50 C 136.18 101.78 134.20 104.12 135.51 105.61 M 46.52 108.69 C 43.63 109.20 45.28 113.95 47.94 112.63 C 50.55 111.85 49.02 107.73 46.52 108.69 M 136.06 111.97 C 133.79 113.80 136.24 117.33 138.74 115.65 C 140.69 113.82 138.47 110.86 136.06 111.97 M 40.17 117.16 C 38.44 118.97 40.43 121.93 42.77 120.78 C 45.40 119.21 42.60 115.24 40.17 117.16 M 136.38 121.37 C 134.24 122.19 135.15 125.92 137.49 125.39 C 140.85 125.36 139.42 119.89 136.38 121.37 M 35.19 125.17 C 32.67 126.12 34.68 130.37 37.02 128.93 C 39.87 128.15 37.67 123.58 35.19 125.17 M 135.48 131.46 C 133.68 134.11 138.29 136.40 139.30 133.52 C 140.35 131.20 136.95 129.51 135.48 131.46 M 29.38 133.56 C 27.14 134.88 29.80 138.79 31.91 136.94 C 34.41 135.62 31.59 131.56 29.38 133.56 M 136.23 140.21 C 134.12 141.47 135.46 145.18 137.99 144.19 C 140.91 143.33 138.99 138.76 136.23 140.21 M 24.45 141.42 C 22.10 141.98 23.06 146.10 25.46 145.43 C 28.71 145.46 27.38 140.05 24.45 141.42 M 19.41 149.50 C 16.75 149.52 17.22 154.07 19.84 153.65 C 22.84 153.80 22.34 148.73 19.41 149.50 M 27.49 149.49 C 27.86 150.90 26.97 153.56 29.16 153.59 C 31.47 154.17 32.29 151.52 31.17 149.88 C 29.95 149.66 28.72 149.59 27.49 149.49 M 37.27 151.89 C 37.35 154.06 40.18 153.30 41.59 153.50 C 41.34 152.37 41.46 151.08 40.86 150.06 C 39.52 148.68 36.67 149.78 37.27 151.89 M 48.46 149.58 C 45.75 150.16 47.20 154.54 49.67 153.57 C 52.66 153.23 51.14 148.43 48.46 149.58 M 58.45 149.52 C 56.64 149.56 56.06 152.73 57.79 153.32 C 58.85 154.09 61.10 153.50 61.01 152.00 C 61.57 150.46 59.90 149.11 58.45 149.52 M 68.47 149.48 C 66.43 149.62 66.92 152.00 66.46 153.41 C 67.51 153.46 68.56 153.45 69.62 153.40 C 71.99 152.77 70.79 148.88 68.47 149.48 M 76.93 149.94 C 76.63 151.13 76.52 152.35 76.37 153.57 C 77.66 153.49 78.95 153.44 80.22 153.20 C 80.47 151.96 80.51 150.71 80.60 149.46 C 79.37 149.58 78.13 149.67 76.93 149.94 M 86.69 153.25 C 87.97 153.43 89.27 153.44 90.56 153.49 C 90.06 152.20 90.84 149.62 88.84 149.58 C 86.66 148.88 85.43 151.63 86.69 153.25 M 97.47 149.55 C 94.89 150.03 95.97 154.34 98.53 153.65 C 101.57 153.32 100.23 148.49 97.47 149.55 M 107.50 149.50 C 105.62 149.53 104.99 152.81 106.82 153.34 C 107.89 154.10 110.11 153.46 110.00 151.97 C 110.50 150.40 108.93 149.21 107.50 149.50 M 117.43 149.48 C 115.35 149.59 115.91 152.10 115.47 153.48 C 116.88 153.34 118.56 153.83 119.69 152.71 C 120.43 151.16 119.21 149.13 117.43 149.48 M 125.46 149.46 C 125.83 150.89 124.90 153.64 127.17 153.60 C 129.41 154.11 130.24 151.55 129.17 149.93 C 127.95 149.67 126.70 149.58 125.46 149.46 M 135.15 151.90 C 135.42 154.15 138.00 153.21 139.54 153.51 C 139.38 152.36 139.28 151.20 138.98 150.09 C 137.48 148.72 134.82 149.71 135.15 151.90 Z" />
<path fill="#5a9ea7" stroke="#5a9ea7" stroke-width="0.09375" opacity="1.00" d=" M 805.00 48.00 C 854.33 48.00 903.67 48.01 953.00 48.00 L 953.00 48.01 C 939.84 67.81 926.56 87.53 913.33 107.29 C 926.53 125.86 939.81 144.37 953.00 162.95 L 953.00 163.00 C 903.67 163.01 854.33 163.00 805.00 163.00 C 805.00 124.67 805.00 86.33 805.00 48.00 M 813.42 56.53 C 813.75 57.81 813.52 59.43 814.60 60.40 C 816.18 60.96 818.27 59.99 817.77 58.06 C 817.62 55.95 814.83 56.70 813.42 56.53 M 823.38 60.32 C 824.77 60.33 826.17 60.32 827.58 60.31 C 827.38 58.63 827.74 55.90 825.21 56.40 C 822.99 56.23 823.79 58.92 823.38 60.32 M 833.17 58.11 C 832.49 60.07 835.72 61.47 836.87 59.86 C 837.24 58.79 837.34 57.66 837.57 56.55 C 836.09 56.68 833.35 55.92 833.17 58.11 M 844.40 56.42 C 841.78 57.13 842.96 61.16 845.54 60.55 C 848.45 59.94 847.18 55.42 844.40 56.42 M 854.43 56.36 C 851.41 56.67 852.76 61.47 855.49 60.44 C 858.15 59.91 857.04 55.69 854.43 56.36 M 862.69 56.47 C 862.70 57.81 862.73 59.14 862.78 60.47 C 864.16 60.15 866.47 60.91 866.76 58.93 C 867.42 56.34 864.37 56.45 862.69 56.47 M 872.78 56.80 C 872.55 58.04 872.49 59.30 872.41 60.56 C 873.74 60.08 876.47 60.98 876.49 58.87 C 877.22 56.54 874.39 55.82 872.78 56.80 M 882.44 59.77 C 884.81 62.04 886.94 58.96 886.52 56.53 C 884.37 56.10 880.81 56.82 882.44 59.77 M 893.48 56.38 C 890.76 56.88 891.86 61.23 894.46 60.49 C 897.40 60.26 896.23 55.46 893.48 56.38 M 903.40 56.38 C 900.68 56.52 901.43 61.04 904.01 60.51 C 907.01 60.57 906.32 55.56 903.40 56.38 M 912.47 56.66 C 911.31 56.82 911.43 58.63 911.73 59.46 C 912.49 61.03 915.72 60.94 915.67 58.90 C 916.44 57.08 913.94 55.64 912.47 56.66 M 921.82 56.72 C 921.56 57.92 921.47 59.14 921.36 60.35 C 922.74 60.34 924.14 60.31 925.55 60.28 C 925.42 59.10 925.33 57.92 925.10 56.77 C 924.03 56.37 922.86 56.26 921.82 56.72 M 932.47 56.48 C 930.04 56.98 931.12 61.16 933.51 60.50 C 936.75 60.49 935.36 55.17 932.47 56.48 M 927.45 64.56 C 924.70 64.68 925.21 69.01 927.82 68.73 C 930.84 68.91 930.31 63.77 927.45 64.56 M 814.14 66.16 C 812.48 68.01 814.45 70.91 816.81 69.76 C 819.41 68.12 816.62 64.27 814.14 66.16 M 920.42 73.50 C 918.91 75.83 922.53 78.33 924.03 76.01 C 925.77 73.85 922.06 71.24 920.42 73.50 M 814.39 75.58 C 813.04 76.34 813.30 79.14 815.02 79.20 C 816.33 79.96 818.10 78.56 817.80 77.12 C 817.95 75.47 815.49 74.45 814.39 75.58 M 915.26 81.35 C 913.46 83.06 915.70 86.09 917.83 84.82 C 920.74 83.53 917.58 79.16 915.26 81.35 M 815.47 84.60 C 812.70 84.50 813.08 89.21 815.84 88.82 C 818.68 88.83 818.27 84.03 815.47 84.60 M 910.23 89.35 C 908.82 89.90 908.79 92.28 910.14 92.86 C 911.23 93.89 913.40 93.00 913.45 91.46 C 913.83 89.78 911.61 88.22 910.23 89.35 M 814.23 94.37 C 813.47 95.26 813.13 96.92 814.24 97.68 C 815.47 98.89 818.13 97.93 817.80 96.06 C 817.99 94.15 815.61 93.43 814.23 94.37 M 905.32 97.33 C 903.50 97.41 903.34 99.64 904.23 100.82 C 905.52 102.13 908.59 101.08 907.96 99.06 C 908.11 97.79 906.36 96.89 905.32 97.33 M 813.44 107.41 C 814.68 107.39 815.95 107.42 817.20 107.25 C 818.27 105.86 817.93 103.41 815.85 103.40 C 813.50 103.05 813.78 105.91 813.44 107.41 M 898.25 107.16 C 897.80 109.35 900.50 110.16 902.05 109.10 C 902.30 107.91 902.38 106.69 902.53 105.48 C 901.04 105.85 898.41 104.94 898.25 107.16 M 814.17 113.21 C 812.06 115.28 815.42 118.63 817.34 116.29 C 819.11 114.29 816.18 111.66 814.17 113.21 M 904.27 113.41 C 903.55 114.19 903.12 116.06 904.32 116.58 C 905.56 117.76 908.11 116.84 907.86 115.01 C 908.13 113.13 905.49 112.22 904.27 113.41 M 910.42 120.51 C 908.75 120.89 908.26 123.61 909.91 124.26 C 910.96 125.07 913.20 124.47 913.16 122.97 C 913.87 121.39 911.82 119.98 910.42 120.51 M 814.43 122.59 C 812.59 123.56 813.82 127.09 816.03 126.36 C 819.41 126.22 817.33 120.38 814.43 122.59 M 915.26 128.29 C 914.20 128.67 914.05 130.29 914.60 131.13 C 915.49 133.06 918.98 132.06 918.56 129.95 C 918.81 128.31 916.40 127.27 915.26 128.29 M 814.16 132.12 C 812.10 134.13 815.24 137.30 817.21 135.21 C 819.24 133.36 816.18 130.25 814.16 132.12 M 921.46 135.44 C 918.75 135.66 919.29 140.20 922.03 139.63 C 924.92 139.56 924.30 134.79 921.46 135.44 M 814.37 141.48 C 812.21 142.92 814.57 146.46 816.98 145.08 C 819.17 143.30 816.73 139.65 814.37 141.48 M 926.19 143.12 C 923.75 144.19 925.49 148.20 927.91 146.98 C 930.80 146.22 928.83 141.78 926.19 143.12 M 813.42 154.47 C 814.46 154.49 815.50 154.46 816.55 154.37 C 818.61 154.02 818.06 150.37 816.02 150.52 C 813.59 149.91 813.71 152.94 813.42 154.47 M 823.40 152.14 C 822.63 154.41 825.52 155.16 827.11 154.23 C 827.34 152.99 827.40 151.74 827.51 150.49 C 826.11 150.91 823.43 149.98 823.40 152.14 M 834.53 150.55 C 832.51 150.89 832.45 154.08 834.43 154.54 C 835.47 154.85 837.49 154.43 837.23 152.97 C 837.85 151.38 835.93 150.05 834.53 150.55 M 844.45 150.51 C 841.46 150.86 842.83 155.71 845.58 154.55 C 848.25 154.05 846.93 149.72 844.45 150.51 M 852.75 150.52 C 852.71 151.86 852.68 153.20 852.67 154.54 C 854.15 154.23 856.63 155.06 856.80 152.86 C 857.07 150.35 854.43 150.65 852.75 150.52 M 862.30 152.87 C 862.29 155.03 865.20 154.33 866.61 154.49 C 866.37 153.37 866.43 152.15 865.92 151.11 C 864.60 149.64 861.73 150.75 862.30 152.87 M 873.44 150.59 C 871.41 150.87 871.48 154.21 873.42 154.55 C 874.45 154.77 876.57 154.46 876.17 152.93 C 876.76 151.31 874.81 150.01 873.44 150.59 M 883.49 150.50 C 880.77 150.61 881.34 155.21 884.04 154.65 C 887.02 154.55 886.32 149.88 883.49 150.50 M 891.40 154.54 C 892.67 154.47 893.98 154.45 895.26 154.24 C 896.31 152.60 895.41 149.90 893.16 150.57 C 891.07 150.52 891.87 153.22 891.40 154.54 M 901.31 152.05 C 900.41 154.69 903.58 154.49 905.29 154.54 C 905.26 153.21 905.24 151.88 905.23 150.55 C 903.87 150.87 901.45 150.04 901.31 152.05 M 912.52 150.56 C 909.72 150.83 910.90 155.47 913.56 154.63 C 916.40 154.22 915.18 149.57 912.52 150.56 M 922.47 150.50 C 920.71 150.55 920.21 152.69 920.94 154.05 C 922.17 155.02 924.86 154.84 924.88 152.89 C 925.36 151.47 923.78 150.22 922.47 150.50 M 930.40 154.63 C 931.66 154.51 932.96 154.43 934.23 154.16 C 935.38 152.59 934.19 149.92 932.12 150.55 C 929.95 150.52 930.84 153.27 930.40 154.63 Z" />
</g>
<g id="#feffffff">
<path fill="#feffff" stroke="#feffff" stroke-width="0.09375" opacity="1.00" d=" M 18.90 55.81 C 20.11 55.55 21.35 55.48 22.58 55.35 C 22.12 56.73 23.05 59.57 20.83 59.45 C 18.62 60.10 17.62 57.29 18.90 55.81 Z" />
<path fill="#feffff" stroke="#feffff" stroke-width="0.09375" opacity="1.00" d=" M 29.40 55.46 C 30.46 55.11 32.49 55.53 32.26 57.00 C 33.05 59.42 29.76 60.26 28.35 58.78 C 27.85 57.57 27.93 55.91 29.40 55.46 Z" />
<path fill="#feffff" stroke="#feffff" stroke-width="0.09375" opacity="1.00" d=" M 39.47 55.41 C 42.01 54.43 43.31 59.19 40.50 59.43 C 37.82 60.46 36.53 55.71 39.47 55.41 Z" />
<path fill="#feffff" stroke="#feffff" stroke-width="0.09375" opacity="1.00" d=" M 47.96 55.92 C 49.49 54.60 52.44 55.69 51.75 57.94 C 51.49 60.04 48.98 59.09 47.54 59.43 C 47.66 58.26 47.73 57.08 47.96 55.92 Z" />
<path fill="#feffff" stroke="#feffff" stroke-width="0.09375" opacity="1.00" d=" M 57.80 55.78 C 59.04 55.54 60.30 55.50 61.56 55.41 C 61.40 56.94 61.62 59.96 59.19 59.47 C 57.19 59.76 56.90 57.04 57.80 55.78 Z" />
<path fill="#feffff" stroke="#feffff" stroke-width="0.09375" opacity="1.00" d=" M 68.45 55.45 C 71.30 54.27 72.61 59.40 69.45 59.52 C 66.96 60.08 65.95 55.99 68.45 55.45 Z" />
<path fill="#feffff" stroke="#feffff" stroke-width="0.09375" opacity="1.00" d=" M 78.41 55.41 C 81.03 54.52 82.18 59.08 79.46 59.45 C 76.80 60.50 75.46 55.62 78.41 55.41 Z" />
<path fill="#feffff" stroke="#feffff" stroke-width="0.09375" opacity="1.00" d=" M 86.42 55.46 C 87.97 55.76 90.51 54.91 90.85 57.12 C 91.00 59.30 88.64 60.09 87.01 59.09 C 86.70 57.90 86.59 56.67 86.42 55.46 Z" />
<path fill="#feffff" stroke="#feffff" stroke-width="0.09375" opacity="1.00" d=" M 97.37 55.66 C 98.44 55.54 99.52 55.49 100.60 55.49 C 100.29 56.97 100.56 59.92 98.20 59.48 C 96.09 59.84 95.39 56.21 97.37 55.66 Z" />
<path fill="#feffff" stroke="#feffff" stroke-width="0.09375" opacity="1.00" d=" M 107.40 55.44 C 110.17 54.34 111.53 58.97 108.58 59.49 C 106.05 60.31 104.78 56.08 107.40 55.44 Z" />
<path fill="#feffff" stroke="#feffff" stroke-width="0.09375" opacity="1.00" d=" M 117.47 55.38 C 120.35 54.62 120.95 59.67 117.99 59.51 C 115.35 60.06 114.71 55.35 117.47 55.38 Z" />
<path fill="#feffff" stroke="#feffff" stroke-width="0.09375" opacity="1.00" d=" M 125.65 55.40 C 126.85 55.50 128.06 55.57 129.25 55.81 C 129.47 56.98 129.52 58.18 129.61 59.37 C 128.29 59.35 126.98 59.32 125.68 59.29 C 125.66 57.99 125.65 56.69 125.65 55.40 Z" />
<path fill="#feffff" stroke="#feffff" stroke-width="0.09375" opacity="1.00" d=" M 135.72 55.77 C 137.00 55.56 138.29 55.56 139.58 55.52 C 139.20 57.01 139.54 59.83 137.19 59.52 C 135.20 59.59 134.63 57.12 135.72 55.77 Z" />
<path fill="#feffff" stroke="#feffff" stroke-width="0.09375" opacity="1.00" d=" M 813.42 56.53 C 814.83 56.70 817.62 55.95 817.77 58.06 C 818.27 59.99 816.18 60.96 814.60 60.40 C 813.52 59.43 813.75 57.81 813.42 56.53 Z" />
<path fill="#feffff" stroke="#feffff" stroke-width="0.09375" opacity="1.00" d=" M 823.38 60.32 C 823.79 58.92 822.99 56.23 825.21 56.40 C 827.74 55.90 827.38 58.63 827.58 60.31 C 826.17 60.32 824.77 60.33 823.38 60.32 Z" />
<path fill="#feffff" stroke="#feffff" stroke-width="0.09375" opacity="1.00" d=" M 833.17 58.11 C 833.35 55.92 836.09 56.68 837.57 56.55 C 837.34 57.66 837.24 58.79 836.87 59.86 C 835.72 61.47 832.49 60.07 833.17 58.11 Z" />
<path fill="#feffff" stroke="#feffff" stroke-width="0.09375" opacity="1.00" d=" M 844.40 56.42 C 847.18 55.42 848.45 59.94 845.54 60.55 C 842.96 61.16 841.78 57.13 844.40 56.42 Z" />
<path fill="#feffff" stroke="#feffff" stroke-width="0.09375" opacity="1.00" d=" M 854.43 56.36 C 857.04 55.69 858.15 59.91 855.49 60.44 C 852.76 61.47 851.41 56.67 854.43 56.36 Z" />
<path fill="#feffff" stroke="#feffff" stroke-width="0.09375" opacity="1.00" d=" M 862.69 56.47 C 864.37 56.45 867.42 56.34 866.76 58.93 C 866.47 60.91 864.16 60.15 862.78 60.47 C 862.73 59.14 862.70 57.81 862.69 56.47 Z" />
<path fill="#feffff" stroke="#feffff" stroke-width="0.09375" opacity="1.00" d=" M 872.78 56.80 C 874.39 55.82 877.22 56.54 876.49 58.87 C 876.47 60.98 873.74 60.08 872.41 60.56 C 872.49 59.30 872.55 58.04 872.78 56.80 Z" />
<path fill="#feffff" stroke="#feffff" stroke-width="0.09375" opacity="1.00" d=" M 882.44 59.77 C 880.81 56.82 884.37 56.10 886.52 56.53 C 886.94 58.96 884.81 62.04 882.44 59.77 Z" />
<path fill="#feffff" stroke="#feffff" stroke-width="0.09375" opacity="1.00" d=" M 893.48 56.38 C 896.23 55.46 897.40 60.26 894.46 60.49 C 891.86 61.23 890.76 56.88 893.48 56.38 Z" />
<path fill="#feffff" stroke="#feffff" stroke-width="0.09375" opacity="1.00" d=" M 903.40 56.38 C 906.32 55.56 907.01 60.57 904.01 60.51 C 901.43 61.04 900.68 56.52 903.40 56.38 Z" />
<path fill="#feffff" stroke="#feffff" stroke-width="0.09375" opacity="1.00" d=" M 912.47 56.66 C 913.94 55.64 916.44 57.08 915.67 58.90 C 915.72 60.94 912.49 61.03 911.73 59.46 C 911.43 58.63 911.31 56.82 912.47 56.66 Z" />
<path fill="#feffff" stroke="#feffff" stroke-width="0.09375" opacity="1.00" d=" M 921.82 56.72 C 922.86 56.26 924.03 56.37 925.10 56.77 C 925.33 57.92 925.42 59.10 925.55 60.28 C 924.14 60.31 922.74 60.34 921.36 60.35 C 921.47 59.14 921.56 57.92 921.82 56.72 Z" />
<path fill="#feffff" stroke="#feffff" stroke-width="0.09375" opacity="1.00" d=" M 932.47 56.48 C 935.36 55.17 936.75 60.49 933.51 60.50 C 931.12 61.16 930.04 56.98 932.47 56.48 Z" />
<path fill="#feffff" stroke="#feffff" stroke-width="0.09375" opacity="1.00" d=" M 24.26 63.35 C 26.32 61.62 29.17 64.29 27.53 66.43 C 25.48 68.39 22.20 65.50 24.26 63.35 Z" />
<path fill="#feffff" stroke="#feffff" stroke-width="0.09375" opacity="1.00" d=" M 927.45 64.56 C 930.31 63.77 930.84 68.91 927.82 68.73 C 925.21 69.01 924.70 64.68 927.45 64.56 Z" />
<path fill="#feffff" stroke="#feffff" stroke-width="0.09375" opacity="1.00" d=" M 135.96 64.94 C 138.73 63.27 141.07 67.95 138.02 68.82 C 135.62 69.83 134.22 66.47 135.96 64.94 Z" />
<path fill="#feffff" stroke="#feffff" stroke-width="0.09375" opacity="1.00" d=" M 814.14 66.16 C 816.62 64.27 819.41 68.12 816.81 69.76 C 814.45 70.91 812.48 68.01 814.14 66.16 Z" />
<path fill="#feffff" stroke="#feffff" stroke-width="0.09375" opacity="1.00" d=" M 30.42 70.50 C 31.47 70.19 33.49 70.51 33.26 72.02 C 33.90 74.00 31.33 75.34 29.91 74.13 C 28.47 73.47 28.83 70.73 30.42 70.50 Z" />
<path fill="#feffff" stroke="#feffff" stroke-width="0.09375" opacity="1.00" d=" M 920.42 73.50 C 922.06 71.24 925.77 73.85 924.03 76.01 C 922.53 78.33 918.91 75.83 920.42 73.50 Z" />
<path fill="#feffff" stroke="#feffff" stroke-width="0.09375" opacity="1.00" d=" M 136.38 74.31 C 137.56 73.89 139.58 74.43 139.41 75.99 C 139.88 77.76 137.35 79.28 136.11 77.95 C 134.58 77.20 134.94 74.94 136.38 74.31 Z" />
<path fill="#feffff" stroke="#feffff" stroke-width="0.09375" opacity="1.00" d=" M 814.39 75.58 C 815.49 74.45 817.95 75.47 817.80 77.12 C 818.10 78.56 816.33 79.96 815.02 79.20 C 813.30 79.14 813.04 76.34 814.39 75.58 Z" />
<path fill="#feffff" stroke="#feffff" stroke-width="0.09375" opacity="1.00" d=" M 35.04 78.24 C 37.37 76.36 40.29 80.29 37.73 81.70 C 35.49 83.32 33.27 80.07 35.04 78.24 Z" />
<path fill="#feffff" stroke="#feffff" stroke-width="0.09375" opacity="1.00" d=" M 915.26 81.35 C 917.58 79.16 920.74 83.53 917.83 84.82 C 915.70 86.09 913.46 83.06 915.26 81.35 Z" />
<path fill="#feffff" stroke="#feffff" stroke-width="0.09375" opacity="1.00" d=" M 136.50 83.71 C 137.95 83.17 139.83 84.28 139.40 85.96 C 139.60 87.43 137.39 88.28 136.35 87.55 C 134.62 86.98 134.89 84.01 136.50 83.71 Z" />
<path fill="#feffff" stroke="#feffff" stroke-width="0.09375" opacity="1.00" d=" M 815.47 84.60 C 818.27 84.03 818.68 88.83 815.84 88.82 C 813.08 89.21 812.70 84.50 815.47 84.60 Z" />
<path fill="#feffff" stroke="#feffff" stroke-width="0.09375" opacity="1.00" d=" M 41.38 85.44 C 44.38 84.49 45.10 89.69 41.99 89.55 C 39.44 89.97 38.84 85.79 41.38 85.44 Z" />
<path fill="#feffff" stroke="#feffff" stroke-width="0.09375" opacity="1.00" d=" M 910.23 89.35 C 911.61 88.22 913.83 89.78 913.45 91.46 C 913.40 93.00 911.23 93.89 910.14 92.86 C 908.79 92.28 908.82 89.90 910.23 89.35 Z" />
<path fill="#feffff" stroke="#feffff" stroke-width="0.09375" opacity="1.00" d=" M 46.18 93.12 C 48.85 91.49 50.85 96.16 48.01 96.94 C 45.56 98.09 43.89 94.28 46.18 93.12 Z" />
<path fill="#feffff" stroke="#feffff" stroke-width="0.09375" opacity="1.00" d=" M 136.19 93.19 C 138.98 91.67 140.90 96.18 138.00 97.19 C 135.53 98.01 134.07 94.46 136.19 93.19 Z" />
<path fill="#feffff" stroke="#feffff" stroke-width="0.09375" opacity="1.00" d=" M 814.23 94.37 C 815.61 93.43 817.99 94.15 817.80 96.06 C 818.13 97.93 815.47 98.89 814.24 97.68 C 813.13 96.92 813.47 95.26 814.23 94.37 Z" />
<path fill="#feffff" stroke="#feffff" stroke-width="0.09375" opacity="1.00" d=" M 905.32 97.33 C 906.36 96.89 908.11 97.79 907.96 99.06 C 908.59 101.08 905.52 102.13 904.23 100.82 C 903.34 99.64 903.50 97.41 905.32 97.33 Z" />
<path fill="#feffff" stroke="#feffff" stroke-width="0.09375" opacity="1.00" d=" M 50.48 100.45 C 52.13 100.66 55.31 100.21 54.69 102.87 C 54.74 104.62 52.72 104.83 51.44 104.36 C 50.34 103.39 50.77 101.73 50.48 100.45 Z" />
<path fill="#feffff" stroke="#feffff" stroke-width="0.09375" opacity="1.00" d=" M 135.51 105.61 C 134.20 104.12 136.18 101.78 137.94 102.50 C 139.68 102.83 139.12 105.21 139.52 106.48 C 138.23 106.22 136.38 106.91 135.51 105.61 Z" />
<path fill="#feffff" stroke="#feffff" stroke-width="0.09375" opacity="1.00" d=" M 813.44 107.41 C 813.78 105.91 813.50 103.05 815.85 103.40 C 817.93 103.41 818.27 105.86 817.20 107.25 C 815.95 107.42 814.68 107.39 813.44 107.41 Z" />
<path fill="#feffff" stroke="#feffff" stroke-width="0.09375" opacity="1.00" d=" M 898.25 107.16 C 898.41 104.94 901.04 105.85 902.53 105.48 C 902.38 106.69 902.30 107.91 902.05 109.10 C 900.50 110.16 897.80 109.35 898.25 107.16 Z" />
<path fill="#feffff" stroke="#feffff" stroke-width="0.09375" opacity="1.00" d=" M 46.52 108.69 C 49.02 107.73 50.55 111.85 47.94 112.63 C 45.28 113.95 43.63 109.20 46.52 108.69 Z" />
<path fill="#feffff" stroke="#feffff" stroke-width="0.09375" opacity="1.00" d=" M 136.06 111.97 C 138.47 110.86 140.69 113.82 138.74 115.65 C 136.24 117.33 133.79 113.80 136.06 111.97 Z" />
<path fill="#feffff" stroke="#feffff" stroke-width="0.09375" opacity="1.00" d=" M 814.17 113.21 C 816.18 111.66 819.11 114.29 817.34 116.29 C 815.42 118.63 812.06 115.28 814.17 113.21 Z" />
<path fill="#feffff" stroke="#feffff" stroke-width="0.09375" opacity="1.00" d=" M 904.27 113.41 C 905.49 112.22 908.13 113.13 907.86 115.01 C 908.11 116.84 905.56 117.76 904.32 116.58 C 903.12 116.06 903.55 114.19 904.27 113.41 Z" />
<path fill="#feffff" stroke="#feffff" stroke-width="0.09375" opacity="1.00" d=" M 40.17 117.16 C 42.60 115.24 45.40 119.21 42.77 120.78 C 40.43 121.93 38.44 118.97 40.17 117.16 Z" />
<path fill="#feffff" stroke="#feffff" stroke-width="0.09375" opacity="1.00" d=" M 910.42 120.51 C 911.82 119.98 913.87 121.39 913.16 122.97 C 913.20 124.47 910.96 125.07 909.91 124.26 C 908.26 123.61 908.75 120.89 910.42 120.51 Z" />
<path fill="#feffff" stroke="#feffff" stroke-width="0.09375" opacity="1.00" d=" M 136.38 121.37 C 139.42 119.89 140.85 125.36 137.49 125.39 C 135.15 125.92 134.24 122.19 136.38 121.37 Z" />
<path fill="#feffff" stroke="#feffff" stroke-width="0.09375" opacity="1.00" d=" M 814.43 122.59 C 817.33 120.38 819.41 126.22 816.03 126.36 C 813.82 127.09 812.59 123.56 814.43 122.59 Z" />
<path fill="#feffff" stroke="#feffff" stroke-width="0.09375" opacity="1.00" d=" M 35.19 125.17 C 37.67 123.58 39.87 128.15 37.02 128.93 C 34.68 130.37 32.67 126.12 35.19 125.17 Z" />
<path fill="#feffff" stroke="#feffff" stroke-width="0.09375" opacity="1.00" d=" M 915.26 128.29 C 916.40 127.27 918.81 128.31 918.56 129.95 C 918.98 132.06 915.49 133.06 914.60 131.13 C 914.05 130.29 914.20 128.67 915.26 128.29 Z" />
<path fill="#feffff" stroke="#feffff" stroke-width="0.09375" opacity="1.00" d=" M 135.48 131.46 C 136.95 129.51 140.35 131.20 139.30 133.52 C 138.29 136.40 133.68 134.11 135.48 131.46 Z" />
<path fill="#feffff" stroke="#feffff" stroke-width="0.09375" opacity="1.00" d=" M 814.16 132.12 C 816.18 130.25 819.24 133.36 817.21 135.21 C 815.24 137.30 812.10 134.13 814.16 132.12 Z" />
<path fill="#feffff" stroke="#feffff" stroke-width="0.09375" opacity="1.00" d=" M 29.38 133.56 C 31.59 131.56 34.41 135.62 31.91 136.94 C 29.80 138.79 27.14 134.88 29.38 133.56 Z" />
<path fill="#feffff" stroke="#feffff" stroke-width="0.09375" opacity="1.00" d=" M 921.46 135.44 C 924.30 134.79 924.92 139.56 922.03 139.63 C 919.29 140.20 918.75 135.66 921.46 135.44 Z" />
<path fill="#feffff" stroke="#feffff" stroke-width="0.09375" opacity="1.00" d=" M 136.23 140.21 C 138.99 138.76 140.91 143.33 137.99 144.19 C 135.46 145.18 134.12 141.47 136.23 140.21 Z" />
<path fill="#feffff" stroke="#feffff" stroke-width="0.09375" opacity="1.00" d=" M 24.45 141.42 C 27.38 140.05 28.71 145.46 25.46 145.43 C 23.06 146.10 22.10 141.98 24.45 141.42 Z" />
<path fill="#feffff" stroke="#feffff" stroke-width="0.09375" opacity="1.00" d=" M 814.37 141.48 C 816.73 139.65 819.17 143.30 816.98 145.08 C 814.57 146.46 812.21 142.92 814.37 141.48 Z" />
<path fill="#feffff" stroke="#feffff" stroke-width="0.09375" opacity="1.00" d=" M 926.19 143.12 C 928.83 141.78 930.80 146.22 927.91 146.98 C 925.49 148.20 923.75 144.19 926.19 143.12 Z" />
<path fill="#feffff" stroke="#feffff" stroke-width="0.09375" opacity="1.00" d=" M 19.41 149.50 C 22.34 148.73 22.84 153.80 19.84 153.65 C 17.22 154.07 16.75 149.52 19.41 149.50 Z" />
<path fill="#feffff" stroke="#feffff" stroke-width="0.09375" opacity="1.00" d=" M 27.49 149.49 C 28.72 149.59 29.95 149.66 31.17 149.88 C 32.29 151.52 31.47 154.17 29.16 153.59 C 26.97 153.56 27.86 150.90 27.49 149.49 Z" />
<path fill="#feffff" stroke="#feffff" stroke-width="0.09375" opacity="1.00" d=" M 37.27 151.89 C 36.67 149.78 39.52 148.68 40.86 150.06 C 41.46 151.08 41.34 152.37 41.59 153.50 C 40.18 153.30 37.35 154.06 37.27 151.89 Z" />
<path fill="#feffff" stroke="#feffff" stroke-width="0.09375" opacity="1.00" d=" M 48.46 149.58 C 51.14 148.43 52.66 153.23 49.67 153.57 C 47.20 154.54 45.75 150.16 48.46 149.58 Z" />
<path fill="#feffff" stroke="#feffff" stroke-width="0.09375" opacity="1.00" d=" M 58.45 149.52 C 59.90 149.11 61.57 150.46 61.01 152.00 C 61.10 153.50 58.85 154.09 57.79 153.32 C 56.06 152.73 56.64 149.56 58.45 149.52 Z" />
<path fill="#feffff" stroke="#feffff" stroke-width="0.09375" opacity="1.00" d=" M 68.47 149.48 C 70.79 148.88 71.99 152.77 69.62 153.40 C 68.56 153.45 67.51 153.46 66.46 153.41 C 66.92 152.00 66.43 149.62 68.47 149.48 Z" />
<path fill="#feffff" stroke="#feffff" stroke-width="0.09375" opacity="1.00" d=" M 76.93 149.94 C 78.13 149.67 79.37 149.58 80.60 149.46 C 80.51 150.71 80.47 151.96 80.22 153.20 C 78.95 153.44 77.66 153.49 76.37 153.57 C 76.52 152.35 76.63 151.13 76.93 149.94 Z" />
<path fill="#feffff" stroke="#feffff" stroke-width="0.09375" opacity="1.00" d=" M 86.69 153.25 C 85.43 151.63 86.66 148.88 88.84 149.58 C 90.84 149.62 90.06 152.20 90.56 153.49 C 89.27 153.44 87.97 153.43 86.69 153.25 Z" />
<path fill="#feffff" stroke="#feffff" stroke-width="0.09375" opacity="1.00" d=" M 97.47 149.55 C 100.23 148.49 101.57 153.32 98.53 153.65 C 95.97 154.34 94.89 150.03 97.47 149.55 Z" />
<path fill="#feffff" stroke="#feffff" stroke-width="0.09375" opacity="1.00" d=" M 107.50 149.50 C 108.93 149.21 110.50 150.40 110.00 151.97 C 110.11 153.46 107.89 154.10 106.82 153.34 C 104.99 152.81 105.62 149.53 107.50 149.50 Z" />
<path fill="#feffff" stroke="#feffff" stroke-width="0.09375" opacity="1.00" d=" M 117.43 149.48 C 119.21 149.13 120.43 151.16 119.69 152.71 C 118.56 153.83 116.88 153.34 115.47 153.48 C 115.91 152.10 115.35 149.59 117.43 149.48 Z" />
<path fill="#feffff" stroke="#feffff" stroke-width="0.09375" opacity="1.00" d=" M 125.46 149.46 C 126.70 149.58 127.95 149.67 129.17 149.93 C 130.24 151.55 129.41 154.11 127.17 153.60 C 124.90 153.64 125.83 150.89 125.46 149.46 Z" />
<path fill="#feffff" stroke="#feffff" stroke-width="0.09375" opacity="1.00" d=" M 135.15 151.90 C 134.82 149.71 137.48 148.72 138.98 150.09 C 139.28 151.20 139.38 152.36 139.54 153.51 C 138.00 153.21 135.42 154.15 135.15 151.90 Z" />
<path fill="#feffff" stroke="#feffff" stroke-width="0.09375" opacity="1.00" d=" M 813.42 154.47 C 813.71 152.94 813.59 149.91 816.02 150.52 C 818.06 150.37 818.61 154.02 816.55 154.37 C 815.50 154.46 814.46 154.49 813.42 154.47 Z" />
<path fill="#feffff" stroke="#feffff" stroke-width="0.09375" opacity="1.00" d=" M 823.40 152.14 C 823.43 149.98 826.11 150.91 827.51 150.49 C 827.40 151.74 827.34 152.99 827.11 154.23 C 825.52 155.16 822.63 154.41 823.40 152.14 Z" />
<path fill="#feffff" stroke="#feffff" stroke-width="0.09375" opacity="1.00" d=" M 834.53 150.55 C 835.93 150.05 837.85 151.38 837.23 152.97 C 837.49 154.43 835.47 154.85 834.43 154.54 C 832.45 154.08 832.51 150.89 834.53 150.55 Z" />
<path fill="#feffff" stroke="#feffff" stroke-width="0.09375" opacity="1.00" d=" M 844.45 150.51 C 846.93 149.72 848.25 154.05 845.58 154.55 C 842.83 155.71 841.46 150.86 844.45 150.51 Z" />
<path fill="#feffff" stroke="#feffff" stroke-width="0.09375" opacity="1.00" d=" M 852.75 150.52 C 854.43 150.65 857.07 150.35 856.80 152.86 C 856.63 155.06 854.15 154.23 852.67 154.54 C 852.68 153.20 852.71 151.86 852.75 150.52 Z" />
<path fill="#feffff" stroke="#feffff" stroke-width="0.09375" opacity="1.00" d=" M 862.30 152.87 C 861.73 150.75 864.60 149.64 865.92 151.11 C 866.43 152.15 866.37 153.37 866.61 154.49 C 865.20 154.33 862.29 155.03 862.30 152.87 Z" />
<path fill="#feffff" stroke="#feffff" stroke-width="0.09375" opacity="1.00" d=" M 873.44 150.59 C 874.81 150.01 876.76 151.31 876.17 152.93 C 876.57 154.46 874.45 154.77 873.42 154.55 C 871.48 154.21 871.41 150.87 873.44 150.59 Z" />
<path fill="#feffff" stroke="#feffff" stroke-width="0.09375" opacity="1.00" d=" M 883.49 150.50 C 886.32 149.88 887.02 154.55 884.04 154.65 C 881.34 155.21 880.77 150.61 883.49 150.50 Z" />
<path fill="#feffff" stroke="#feffff" stroke-width="0.09375" opacity="1.00" d=" M 891.40 154.54 C 891.87 153.22 891.07 150.52 893.16 150.57 C 895.41 149.90 896.31 152.60 895.26 154.24 C 893.98 154.45 892.67 154.47 891.40 154.54 Z" />
<path fill="#feffff" stroke="#feffff" stroke-width="0.09375" opacity="1.00" d=" M 901.31 152.05 C 901.45 150.04 903.87 150.87 905.23 150.55 C 905.24 151.88 905.26 153.21 905.29 154.54 C 903.58 154.49 900.41 154.69 901.31 152.05 Z" />
<path fill="#feffff" stroke="#feffff" stroke-width="0.09375" opacity="1.00" d=" M 912.52 150.56 C 915.18 149.57 916.40 154.22 913.56 154.63 C 910.90 155.47 909.72 150.83 912.52 150.56 Z" />
<path fill="#feffff" stroke="#feffff" stroke-width="0.09375" opacity="1.00" d=" M 922.47 150.50 C 923.78 150.22 925.36 151.47 924.88 152.89 C 924.86 154.84 922.17 155.02 920.94 154.05 C 920.21 152.69 920.71 150.55 922.47 150.50 Z" />
<path fill="#feffff" stroke="#feffff" stroke-width="0.09375" opacity="1.00" d=" M 930.40 154.63 C 930.84 153.27 929.95 150.52 932.12 150.55 C 934.19 149.92 935.38 152.59 934.23 154.16 C 932.96 154.43 931.66 154.51 930.40 154.63 Z" />
</g>
</svg>
