<?xml version="1.0" encoding="UTF-8" ?>
<!DOCTYPE svg PUBLIC "-//W3C//DTD SVG 1.1//EN" "http://www.w3.org/Graphics/SVG/1.1/DTD/svg11.dtd">
<svg width="300pt" height="115pt" viewBox="0 0 300 115" version="1.1" xmlns="http://www.w3.org/2000/svg">
<g id="#ffffffff">
</g>
<g id="#845438ff">
<path fill="#845438" stroke="#845438" stroke-width="0.09375" opacity="1.00" d=" M 0.98 1.68 C 34.31 1.44 67.66 1.71 101.00 1.54 C 105.39 1.54 110.04 1.81 113.88 4.16 C 118.76 7.14 122.53 11.72 125.07 16.80 C 129.62 25.71 127.08 36.02 127.72 45.59 C 115.79 45.26 103.86 45.51 91.94 45.50 C 85.71 45.54 80.09 42.55 74.30 40.68 C 49.91 32.36 25.54 23.96 1.13 15.71 C 0.91 11.03 0.82 6.36 0.98 1.68 Z" />
<path fill="#845438" stroke="#845438" stroke-width="0.09375" opacity="1.00" d=" M 43.19 33.23 C 54.61 37.08 65.96 41.12 77.43 44.79 C 77.63 56.99 77.35 69.19 77.60 81.39 C 81.31 81.44 85.01 81.46 88.71 81.40 C 88.59 91.86 88.55 102.32 88.69 112.79 C 68.54 112.73 48.39 112.62 28.24 112.83 C 28.25 107.39 28.23 101.94 28.36 96.50 C 32.93 94.13 37.84 92.22 41.92 89.02 C 43.75 87.62 43.09 85.03 43.32 83.04 C 43.15 66.44 43.36 49.83 43.19 33.23 Z" />
<path fill="#845438" stroke="#845438" stroke-width="0.09375" opacity="1.00" d=" M 82.21 49.32 C 97.38 49.49 112.56 49.51 127.73 49.33 C 127.70 58.48 127.69 67.62 127.76 76.77 C 112.57 76.69 97.38 76.69 82.19 76.77 C 82.26 67.62 82.25 58.47 82.21 49.32 Z" />
<path fill="#845438" stroke="#845438" stroke-width="0.09375" opacity="1.00" d=" M 92.22 81.40 C 94.02 81.41 95.82 81.41 97.63 81.39 C 97.57 91.86 97.55 102.32 97.67 112.78 C 95.84 112.78 94.01 112.80 92.18 112.83 C 92.22 102.35 92.15 91.88 92.22 81.40 Z" />
<path fill="#845438" stroke="#845438" stroke-width="0.09375" opacity="1.00" d=" M 101.24 81.34 C 102.70 81.38 104.17 81.42 105.63 81.46 C 106.59 85.99 107.74 90.48 109.19 94.88 C 109.81 90.54 109.88 86.15 109.84 81.77 C 111.34 81.70 112.83 81.68 114.33 81.73 C 114.49 92.10 114.56 102.47 114.23 112.84 C 112.61 112.80 111.01 112.75 109.40 112.70 C 108.70 108.51 107.65 104.40 106.05 100.46 C 105.56 104.55 105.54 108.66 105.59 112.77 C 104.11 112.79 102.63 112.81 101.15 112.84 C 101.18 102.34 101.16 91.84 101.24 81.34 Z" />
<path fill="#845438" stroke="#845438" stroke-width="0.09375" opacity="1.00" d=" M 119.46 81.41 C 122.30 81.46 125.14 81.46 127.98 81.43 C 129.62 91.83 130.32 102.33 131.81 112.75 C 129.95 112.75 128.10 112.78 126.25 112.79 C 125.95 111.00 125.73 109.20 125.46 107.41 C 124.85 107.36 123.65 107.24 123.04 107.18 C 122.62 109.04 122.22 110.90 121.80 112.75 C 119.94 112.74 118.09 112.72 116.23 112.72 C 117.46 102.30 118.44 91.85 119.46 81.41 M 125.09 102.93 C 125.61 98.55 125.11 94.18 124.03 89.93 C 123.32 94.09 120.45 100.10 125.09 102.93 Z" />
<path fill="#845438" stroke="#845438" stroke-width="0.09375" opacity="1.00" d=" M 133.44 81.41 C 135.48 81.43 137.51 81.43 139.55 81.41 C 139.56 89.72 139.18 98.04 139.80 106.33 C 140.89 107.00 141.94 107.73 142.95 108.52 C 143.17 109.93 143.28 111.36 143.48 112.78 C 140.13 112.74 136.78 112.71 133.43 112.74 C 133.64 102.30 133.62 91.85 133.44 81.41 Z" />
<path fill="#845438" stroke="#845438" stroke-width="0.09375" opacity="1.00" d=" M 151.23 81.34 C 154.97 81.64 159.03 80.89 162.53 82.52 C 166.01 86.16 164.72 91.71 163.45 96.04 C 165.79 100.87 166.85 107.21 163.99 111.98 C 159.88 113.31 155.44 112.62 151.18 112.82 C 151.26 102.32 151.23 91.83 151.23 81.34 M 156.88 94.91 C 160.30 92.92 160.00 88.87 157.99 85.94 C 156.30 88.67 156.58 91.86 156.88 94.91 M 158.91 108.83 C 159.48 105.19 160.12 101.23 158.05 97.91 C 155.89 101.30 155.60 106.19 158.91 108.83 Z" />
<path fill="#845438" stroke="#845438" stroke-width="0.09375" opacity="1.00" d=" M 168.26 81.38 C 170.08 81.39 171.90 81.38 173.72 81.36 C 173.69 90.34 173.72 99.32 173.74 108.31 C 174.38 108.31 175.66 108.30 176.29 108.30 C 176.30 99.32 176.35 90.34 176.32 81.36 C 178.12 81.38 179.92 81.39 181.73 81.38 C 181.60 89.92 182.13 98.48 181.66 107.02 C 181.64 110.47 178.96 112.94 176.53 115.00 L 174.20 115.00 C 171.60 112.93 168.55 110.53 168.39 106.91 C 167.82 98.41 168.44 89.89 168.26 81.38 Z" />
<path fill="#845438" stroke="#845438" stroke-width="0.09375" opacity="1.00" d=" M 185.36 81.37 C 189.08 81.65 193.19 80.80 196.64 82.44 C 200.14 86.34 198.98 92.38 196.97 96.77 C 199.51 101.75 198.73 107.43 198.77 112.81 C 196.98 112.78 195.19 112.76 193.41 112.75 C 193.44 107.77 194.49 102.44 191.99 97.87 C 190.06 102.63 190.77 107.80 190.76 112.81 C 188.95 112.79 187.13 112.79 185.32 112.80 C 185.37 102.32 185.23 91.85 185.36 81.37 M 190.97 86.76 C 190.67 89.42 190.80 92.10 191.02 94.76 C 192.24 93.77 193.96 92.71 193.79 90.89 C 193.67 89.04 193.79 85.56 190.97 86.76 Z" />
<path fill="#845438" stroke="#845438" stroke-width="0.09375" opacity="1.00" d=" M 202.29 81.34 C 203.80 81.37 205.32 81.39 206.84 81.41 C 207.58 85.92 209.00 90.28 210.67 94.52 C 211.27 90.16 211.36 85.76 211.34 81.37 C 212.79 81.38 214.24 81.37 215.69 81.35 C 215.71 91.87 215.71 102.39 215.70 112.92 C 214.01 112.81 212.32 112.70 210.63 112.54 C 209.79 108.14 208.77 103.79 207.16 99.60 C 206.59 103.98 206.63 108.40 206.64 112.81 C 205.18 112.81 203.72 112.83 202.26 112.85 C 202.29 102.34 202.24 91.84 202.29 81.34 Z" />
<path fill="#845438" stroke="#845438" stroke-width="0.09375" opacity="1.00" d=" M 226.42 81.39 C 229.26 81.46 232.10 81.48 234.94 81.47 C 236.19 91.97 237.48 102.47 238.51 113.00 C 236.55 112.81 234.59 112.67 232.63 112.60 C 232.45 110.79 232.32 108.98 232.14 107.17 C 231.48 107.23 230.14 107.35 229.47 107.41 C 229.21 109.20 229.00 110.99 228.72 112.78 C 226.87 112.77 225.02 112.74 223.18 112.74 C 224.08 102.27 225.24 91.83 226.42 81.39 M 229.23 101.83 C 229.98 101.88 231.50 101.99 232.26 102.05 C 232.36 97.68 231.97 93.35 230.98 89.09 C 229.86 93.26 229.44 97.53 229.23 101.83 Z" />
<path fill="#845438" stroke="#845438" stroke-width="0.09375" opacity="1.00" d=" M 252.30 81.32 C 256.00 81.65 260.05 80.85 263.49 82.50 C 266.05 86.35 265.58 91.54 265.10 95.95 C 265.07 99.66 260.77 99.63 258.16 100.52 C 257.86 104.60 257.71 108.70 257.76 112.79 C 255.93 112.78 254.11 112.78 252.29 112.80 C 252.33 102.31 252.30 91.81 252.30 81.32 M 257.56 94.99 C 258.40 94.88 260.08 94.66 260.92 94.55 C 260.79 91.49 260.51 88.41 258.96 85.70 C 258.21 88.74 257.86 91.87 257.56 94.99 Z" />
<path fill="#845438" stroke="#845438" stroke-width="0.09375" opacity="1.00" d=" M 268.24 81.40 C 270.03 81.42 271.83 81.41 273.63 81.39 C 273.92 85.59 272.25 90.78 275.87 93.93 C 276.34 89.76 276.35 85.56 276.34 81.38 C 278.14 81.40 279.95 81.40 281.76 81.39 C 281.82 91.87 281.75 102.35 281.77 112.83 C 279.93 112.80 278.11 112.79 276.28 112.80 C 275.74 108.25 278.14 102.15 273.96 98.91 C 273.54 103.52 273.59 108.16 273.66 112.79 C 271.84 112.78 270.02 112.79 268.21 112.81 C 268.23 102.34 268.16 91.87 268.24 81.40 Z" />
<path fill="#845438" stroke="#845438" stroke-width="0.09375" opacity="1.00" d=" M 287.12 81.47 C 289.93 81.47 292.75 81.46 295.57 81.40 C 296.87 91.85 298.38 102.30 298.88 112.83 C 297.10 112.78 295.32 112.76 293.55 112.73 C 293.30 110.57 292.97 108.41 292.66 106.26 C 290.57 107.89 289.62 110.16 289.25 112.74 C 287.54 112.76 285.83 112.78 284.13 112.81 C 284.52 102.31 286.21 91.93 287.12 81.47 M 291.48 89.56 C 290.44 93.58 290.33 97.73 290.00 101.84 C 290.73 101.84 292.19 101.86 292.91 101.86 C 292.98 97.70 292.40 93.60 291.48 89.56 Z" />
<path fill="#845438" stroke="#845438" stroke-width="0.09375" opacity="1.00" d=" M 240.27 81.63 C 242.12 81.88 243.99 81.86 245.84 81.60 C 246.45 90.02 246.15 98.47 246.21 106.91 C 247.38 107.09 248.57 107.26 249.75 107.44 C 249.77 109.21 249.78 110.99 249.82 112.77 C 246.63 112.74 243.44 112.75 240.25 112.81 C 240.37 102.42 240.32 92.03 240.27 81.63 Z" />
</g>
</svg>
